<?xml version="1.0" encoding="UTF-8" standalone="no"?><!DOCTYPE svg PUBLIC "-//W3C//DTD SVG 1.1//EN" "http://www.w3.org/Graphics/SVG/1.1/DTD/svg11.dtd"><svg width="40px" height="40px" version="1.1" xmlns="http://www.w3.org/2000/svg" xmlns:xlink="http://www.w3.org/1999/xlink" xml:space="preserve" style="fill-rule:evenodd;clip-rule:evenodd;stroke-linejoin:round;stroke-miterlimit:1.41421;"><g transform="matrix(3.0462,0,0,3.0462,-4.35686,-4.36957)"><path d="M9.213,5.804C9.216,5.801 9.219,5.798 9.223,5.796L9.224,5.795L9.224,5.795C10.766,4.739 12.873,5.133 13.929,6.676C14.984,8.218 14.59,10.323 13.048,11.379L13.048,11.379L10.256,13.291L8.394,14.566C7.69,13.538 7.953,12.134 8.981,11.429L10.074,10.681L11.773,9.518C12.287,9.166 12.419,8.464 12.066,7.95C11.715,7.435 11.013,7.304 10.499,7.657L10.499,7.657L8.638,8.932C7.936,7.908 8.194,6.511 9.213,5.804ZM5.501,8.344L7.363,7.07C8.067,8.098 7.804,9.502 6.776,10.206L6.775,10.206C5.234,11.261 3.127,10.867 2.072,9.325C1.016,7.783 1.41,5.676 2.952,4.621C2.953,4.62 2.954,4.619 2.955,4.618L5.745,2.709L7.606,1.434C8.31,2.462 8.047,3.866 7.019,4.571L5.926,5.319L4.228,6.481C4.228,6.481 4.227,6.482 4.227,6.482C3.713,6.834 3.581,7.536 3.933,8.05C4.285,8.565 4.987,8.696 5.501,8.344L5.501,8.344ZM9.213,5.804L9.211,5.805L9.225,5.796L9.213,5.804Z"/></g></svg>